<svg width="58" height="58" xmlns="http://www.w3.org/2000/svg"><g fill="none" fill-rule="evenodd"><circle fill="#F5F5F5" cx="29" cy="29" r="29"/><path d="M24 23h-1v-3a1 1 0 1 0-2 0v3h-1a1 1 0 1 0 0 2h4a1 1 0 1 0 0-2zm-2 4a1 1 0 0 0-1 1v10a1 1 0 0 0 2 0V28a1 1 0 0 0-1-1zm7 8a1 1 0 0 0-1 1v2a1 1 0 0 0 2 0v-2a1 1 0 0 0-1-1zm9-8h-1v-7a1 1 0 0 0-2 0v7h-1a1 1 0 0 0 0 2h4a1 1 0 0 0 0-2zm-2 4a1 1 0 0 0-1 1v6a1 1 0 0 0 2 0v-6a1 1 0 0 0-1-1zm-5 0h-1V20a1 1 0 0 0-2 0v11h-1a1 1 0 0 0 0 2h4a1 1 0 0 0 0-2z" fill="#009B8A" fill-rule="nonzero"/></g></svg>