<svg width="58" height="58" xmlns="http://www.w3.org/2000/svg"><g fill="none" fill-rule="evenodd"><circle fill="#F5F5F5" cx="29" cy="29" r="29"/><path d="M37 30a1 1 0 0 0-1 1v.39l-1.48-1.48a2.79 2.79 0 0 0-3.93 0l-.7.7-2.48-2.49a2.87 2.87 0 0 0-3.93 0L22 29.61V24a1 1 0 0 1 1-1h4a1 1 0 1 0 0-2h-4a3 3 0 0 0-3 3v12a3 3 0 0 0 3 3h12a3 3 0 0 0 3-3v-5a1 1 0 0 0-1-1zm-14 7a1 1 0 0 1-1-1v-3.57l2.9-2.89a.79.79 0 0 1 1.09 0l3.17 3.17L33.45 37H23zm13-1a1 1 0 0 1-.18.54L31.31 32l.7-.69a.77.77 0 0 1 1.1 0L36 34.22V36zm3.71-8.71L38 25.57a4.31 4.31 0 1 0-6.72.79 4.27 4.27 0 0 0 3 1.26 4.34 4.34 0 0 0 2.29-.62l1.72 1.73a1 1 0 0 0 1.42 0 1 1 0 0 0 0-1.44zM36 25a2.32 2.32 0 1 1-3.292-3.27A2.32 2.32 0 0 1 36 25z" fill="#009B8A" fill-rule="nonzero"/></g></svg>