<svg width="58" height="58" xmlns="http://www.w3.org/2000/svg"><g fill="none" fill-rule="evenodd"><circle fill="#F5F5F5" cx="29" cy="29" r="29"/><path d="M36.875 22.4H33.5v-3.3c0-.608-.504-1.1-1.125-1.1s-1.125.492-1.125 1.1v3.3h-4.5v-3.3c0-.608-.504-1.1-1.125-1.1s-1.125.492-1.125 1.1v3.3h-3.375c-.621 0-1.125.492-1.125 1.1 0 .608.504 1.1 1.125 1.1h1.125v5.5c-.002.292.116.573.326.781l3.049 2.97V38.9c0 .608.504 1.1 1.125 1.1s1.125-.492 1.125-1.1v-4.4h2.25v4.4c0 .608.504 1.1 1.125 1.1s1.125-.492 1.125-1.1v-5.049l3.049-2.97c.21-.208.328-.489.326-.781v-5.5h1.125c.621 0 1.125-.492 1.125-1.1 0-.608-.504-1.1-1.125-1.1zM33.5 29.649L30.789 32.3H27.21L24.5 29.649V24.6h9v5.049zm-5.625.451h2.25c.621 0 1.125-.492 1.125-1.1 0-.608-.504-1.1-1.125-1.1h-2.25c-.621 0-1.125.492-1.125 1.1 0 .608.504 1.1 1.125 1.1z" fill="#009B8A" fill-rule="nonzero"/></g></svg>