<svg width="58" height="58" xmlns="http://www.w3.org/2000/svg"><g fill="none" fill-rule="evenodd"><circle fill="#F5F5F5" cx="29" cy="29" r="29"/><path d="M35 32V22a3 3 0 0 0-3-3H22a3 3 0 0 0-3 3v10a3 3 0 0 0 3 3h10a3 3 0 0 0 3-3zM21 22a1 1 0 0 1 1-1h10a1 1 0 0 1 1 1v4.36l-1.08-1.09a2.56 2.56 0 0 0-1.81-.75 2.58 2.58 0 0 0-1.81.75l-.91.91-.81-.81a2.93 2.93 0 0 0-4.11 0L21 26.85V22zm.12 10.45A.94.94 0 0 1 21 32v-2.33l2.88-2.88a.91.91 0 0 1 1.29 0l.83.81-4.88 4.85zm8.6-5.76a.52.52 0 0 1 .39-.17.52.52 0 0 1 .39.17l2.5 2.49V32a1 1 0 0 1-1 1h-8.6l6.32-6.31zM38 23a1 1 0 0 0-1 1v10a3 3 0 0 1-3 3H24a1 1 0 0 0 0 2h10a5 5 0 0 0 5-5V24a1 1 0 0 0-1-1z" fill="#009B8A" fill-rule="nonzero"/></g></svg>