<svg width="58" height="58" xmlns="http://www.w3.org/2000/svg"><g fill="none" fill-rule="evenodd"><circle fill="#F5F5F5" cx="29" cy="29" r="29"/><path d="M27.504 22.504a1 1 0 0 0-1 1v1.59l-5.79-5.8a1.004 1.004 0 0 0-1.42 1.42l5.8 5.79h-1.59a1 1 0 1 0 0 2h4a1 1 0 0 0 .38-.08 1 1 0 0 0 .54-.54 1 1 0 0 0 .08-.38v-4a1 1 0 0 0-1-1zm11.21 14.79l-5.8-5.79h1.59a1 1 0 0 0 0-2h-4a1 1 0 0 0-.38.08 1 1 0 0 0-.54.54 1 1 0 0 0-.08.38v4a1 1 0 1 0 2 0v-1.59l5.79 5.8a1 1 0 0 0 1.42 0 1 1 0 0 0 0-1.42z" fill="#009B8A" fill-rule="nonzero"/></g></svg>