<svg width="58" height="58" xmlns="http://www.w3.org/2000/svg"><g fill="none" fill-rule="evenodd"><circle fill="#FFF" cx="29" cy="29" r="29"/><path d="M25 24a1 1 0 1 0 0 2 1 1 0 0 0 0-2zm14.71 5.78l-9.48-9.46a1 1 0 0 0-.73-.32h-6a1 1 0 0 0-.71.29l-2.5 2.49a1 1 0 0 0-.29.71v6c.004.265.107.518.29.71l9.49 9.5c.192.183.445.286.71.29a1 1 0 0 0 .71-.29l8.51-8.51a1 1 0 0 0 .29-.71 1.05 1.05 0 0 0-.29-.7zm-9.22 7.81L22 29.09V23.9l1.9-1.9h5.18l8.5 8.49-7.09 7.1z" fill="#009B8A" fill-rule="nonzero"/></g></svg>