<svg width="93" height="28" xmlns="http://www.w3.org/2000/svg"><g fill="none"><path d="M0 .42h3.484l5.64 15.51L14.792.42h3.483l-7.16 19.464H7.16L0 .42zm25.38 19.906c-1.474 0-2.76-.318-3.856-.954a6.627 6.627 0 0 1-2.557-2.654c-.609-1.133-.913-2.419-.913-3.857 0-1.4.29-2.668.871-3.801a6.56 6.56 0 0 1 2.502-2.682c1.088-.655 2.35-.982 3.788-.982 1.4 0 2.599.309 3.594.927.996.617 1.751 1.483 2.267 2.598.516 1.116.774 2.42.774 3.913 0 .295-.009.543-.027.746H21.068c.129 1.364.585 2.392 1.368 3.083.784.691 1.811 1.037 3.083 1.037.94 0 1.802-.162 2.585-.484a8.326 8.326 0 0 0 2.17-1.313l1.051 2.35a8.625 8.625 0 0 1-2.71 1.548c-.995.35-2.073.525-3.234.525zm3.457-8.875c-.092-1.124-.46-1.986-1.106-2.585-.645-.599-1.484-.898-2.516-.898-1.07 0-1.958.3-2.668.898-.71.6-1.166 1.46-1.369 2.585h7.659zM34.78.415L37.851 0v19.884h-3.07V.415zM52.31 5.84l3.104-.355.02 14.4H52.31V5.839zm-4.783-.443c1.253 0 2.368.323 3.345.968.977.645 1.742 1.53 2.295 2.654.553 1.125.83 2.415.83 3.87 0 1.439-.277 2.72-.83 3.844-.553 1.124-1.318 2.004-2.295 2.64-.977.636-2.092.954-3.345.954-1.309 0-2.47-.318-3.484-.954-1.014-.636-1.806-1.516-2.377-2.64-.572-1.124-.858-2.405-.858-3.843 0-1.438.286-2.723.858-3.857.57-1.134 1.363-2.023 2.377-2.668 1.014-.645 2.175-.968 3.484-.968zm.636 2.737c-1.272 0-2.281.429-3.028 1.286-.746.857-1.12 2.014-1.12 3.47 0 .958.171 1.792.512 2.502.341.71.825 1.258 1.452 1.645.626.387 1.354.58 2.184.58.83 0 1.557-.193 2.184-.58.627-.387 1.11-.935 1.452-1.645.34-.71.511-1.544.511-2.502 0-1.456-.378-2.613-1.134-3.47-.755-.857-1.76-1.286-3.013-1.286z" fill="#005351"/><path d="M71.098 27.6L88.23 9.004c.486-.485.898-1.044.898-1.752 0-.969-.748-1.64-1.758-1.64H72.744c-3.74 0-6.06 2.684-6.06 5.74 0 3.092 2.282 5.216 4.975 5.216 2.32 0 3.89-1.602 3.89-3.652 0-1.975-1.496-3.8-3.628-3.763V7.96c3.591-.745 6.584 1.938 6.584 5.552 0 3.503-2.88 6.596-7.07 6.596-4.601 0-8.417-3.54-8.417-8.794 0-5.217 3.965-9.316 9.838-9.316h14.7c3.33 0 5.462 2.124 5.462 5.142 0 1.715-.71 2.944-1.646 3.913L76.222 27.6h-5.124z" fill="#009B8A"/></g></svg>